<svg version="1.1" id="callaway-svg" xmlns="http://www.w3.org/2000/svg" xmlns:xlink="http://www.w3.org/1999/xlink" x="0px"
	 y="0px" viewBox="0 0 450.4 253.8" enable-background="new 0 0 450.4 253.8" xml:space="preserve">
<g>
	<path fill="#FFFFFF" d="M442.9,108.1v1.2h0.7c0.6,0,1.5,0.1,1.5-0.6s-0.5-0.6-1.1-0.6L442.9,108.1z M445.9,112h-0.8l-1.3-2.1H443
		l0.1,2.2h-0.7l-0.2-4.7l2-0.1c0.9,0,1.6,0.2,1.7,1.2c0.1,0.6-0.4,1.2-1,1.3c-0.1,0-0.1,0-0.2,0L445.9,112z M440.4,109.8
		c0.1,1.9,1.7,3.4,3.6,3.4c1.9-0.1,3.4-1.7,3.4-3.6s-1.7-3.4-3.6-3.4C441.9,106.2,440.4,107.9,440.4,109.8 M439.8,109.8
		c-0.1-2.3,1.7-4.2,4-4.3s4.2,1.7,4.3,4c0.1,2.3-1.7,4.2-4,4.3c0,0,0,0,0,0C441.8,113.9,439.9,112.1,439.8,109.8
		C439.8,109.8,439.8,109.8,439.8,109.8"/>
	<path fill="#FFFFFF" d="M95.5,83.1c-2.4,0-2.3,3.6-2.3,3.6c0.3,13.8,11,17.3,11,17.3c4.1,2.5,4.8-0.9,4.8-0.9l3.3-6.3l-6-14.1
		L95.5,83.1z M112.2,56.4l16,36.6c1.8,4,4.2,1.3,4.2,1.3c2.5-1.5,3.5-0.7,3.5-0.7c1.6,1.2,0.1,2.8,0.1,2.8l-6.2,12
		c-1.7,4.5-6.2,0.4-6.2,0.4c-2.2-1.5-4.4-3.1-6.4-4.8c-1.6-2.7-3.5,0-3.5,0l-7,12.5c-2.2,5.1-8.7,1.8-8.7,1.8
		C75.6,111.1,88.5,82,88.5,82c1.3-5.1,4.3-4.3,4.3-4.3l11.5-0.4c-0.4-3.5-4.9-11.1-4.9-11.1c-1.2-2.8-3.1-2.2-3.1-2.2l-19.2,1.2
		c-1.7,0.2-1.6-1.2-1.6-1.2c-0.4-1.2,1.6-2.1,1.6-2.1c3.8-1.4,7.1-7.4,7.1-7.4c2.4-3.3,5.3-2.5,5.3-2.5l11.6-0.5
		C109.7,51,112.1,56.4,112.2,56.4"/>
	<path fill="#FFFFFF" d="M407.3,91.3l-11.2,2c0,0-1.9,0.3-1.7,1.4c0.1,0.7,0.6,1.3,1.3,1.4l1.3,0.9c0,0,2.9,1.4,0.3,5l-14.3,23.5
		c0,0-7,11-4.3,19.7c1.1,3.7-2.7,9.3-2.8,9.2s-0.5-3.9-10.3-8.3c-2-1.2-4.5-0.9-6.1,0.8l-4,3.3c0,0-2,1.9,0.2,2.3
		c0,0,5.1,1.7,10.7,8.7c1.6,2.2,4.2,3.5,6.9,3.2c0,0,9-0.5,15.2-12.2c1.3-0.8,6.9,6.8,23.2-4.6c13.1-9.1,23-20.3,22.8-37.9
		c0,0,0.4-5.1-4.1-3.9l-7,0.7c0,0-3.9-0.3-3.4,4.3c0,0,1.5,24-24.4,29c0,0-5,1.6-3-2.9c0,0,10.1-17.7,16.8-26.3c0,0,8.1-8.7,3-17
		l-1.1-1.6C411.4,92,410.8,90.5,407.3,91.3"/>
	<path fill="#FFFFFF" d="M213.5,57.1c-2.2-0.9-3.5,2.5-3.5,2.5c-4.9,13,3.8,20.1,3.8,20.1c2.9,3.8,4.8,1,4.8,1l5.4-4.7l-0.3-15.3
		L213.5,57.1z M239.2,40l0.9,38.6c0.2,4.4,3.4,2.7,3.4,2.7c2.9-0.4,3.5,0.7,3.5,0.7c1.1,1.7-0.9,2.7-0.9,2.7l-10.2,8.9
		c-3.2,3.6-5.9-1.9-5.9-1.9c-1.5-2.2-2.9-4.5-4.1-6.8c-0.5-3-3.3-1.4-3.3-1.4l-11.1,9c-4,3.9-8.7-1.5-8.7-1.5
		c-18-15.3,4.8-37.5,4.8-37.5c3.1-4.2,5.6-2.4,5.6-2.4l10.8,3.9c0.9-3.4-0.4-12.2-0.4-12.2c-0.1-3-2-3.2-2-3.2l-18.4-6
		c-1.6-0.4-1-1.7-1-1.7c0.1-1.3,2.3-1.4,2.3-1.4c4,0.1,9.4-4.2,9.4-4.2c3.5-2.1,5.9-0.4,5.9-0.4l10.9,3.9
		C239.1,32.6,239.2,40,239.2,40"/>
	<path fill="#FFFFFF" d="M306.4,52.1l-3.3,12.7l-0.9,3.7l-3.4,13c-1.9,5.9-0.1,6.2-0.1,6.2l7.9,5.7c1.7,1.2,2-1.7,2-1.7l10.7-32.6
		c1.6-5.8-0.2-7.5-0.2-7.5l-0.9-1.6c-2.1-2.8,0-3.3,0-3.3l8.6-3.4c3.3-1.7,4.3,1,4.3,1c6.7,8.5,3,18.2,3,18.2l-12.4,36.5
		c-1,4-4,2.6-4,2.6c-5.2-0.3-10.4,0.8-15.1,3.2c-3.5,2.6-5.9-1-5.9-1c-0.6-0.7-9.6-7-9.6-7c-4.2-3.4-7.6-0.9-7.6-0.9l-4,2
		c-3.5,2.8-5.3-0.6-5.3-0.6c-4.1-6.9-16.4-11.2-16.4-11.2c-0.9,0.1-1.6-0.5-1.8-1.3c-0.3-1.1,1.2-1.9,1.2-1.9l1.8-1.6
		c1.1-0.9,1.8-2.1,1.8-3.5l5.2-40c1.5-10.6-0.9-11-0.9-11c-1.8-0.8-1.1-2.1-1.1-2.1c0.4-0.9,1.5-0.5,1.5-0.5
		c16.1,2.4,16.3,10.9,16.3,10.9L271.3,77c-0.8,5.3,1.7,5.4,1.7,5.4l5.9,3.8c3.9,3,4.5-3.3,4.5-3.3l7.7-30.2l0.2-0.8
		c0.8-5.9-2.2-7.8-2.2-7.8c-2.6-2.2,0.3-3.4,0.3-3.4l6.8-4c3.2-1.7,4.2,0.1,4.2,0.1C308.3,44.3,306.4,52,306.4,52.1"/>
	<path fill="#FFFFFF" d="M126.7,37.4l13.6,45c0,0,3,7.9,0.1,11.5c-0.8,0.3-1.2,1.1-0.9,1.9c0,0,0.1,1,2.2,1.1c0,0,12.1,0.2,15.8,3.3
		c0,0,3.2,3,4.9-0.5c0,0-2.4-8.6-4.5-14.6l-20-63.3c-1.1-3.5-0.6-7.3,1.3-10.4c0,0,1.7-1.8,0.3-3c0,0-1.2-1-3.3,0.5
		c0,0-3.9,2.6-8.1,9.3C125.5,24.2,125,31,126.7,37.4"/>
	<path fill="#FFFFFF" d="M163.6,27l7.5,48.2c0,0,1.9,8.2-1.5,11.4c-0.8,0.2-1.3,1-1.1,1.8c0,0,0,1,2,1.3c0,0,12.4,1.5,15.7,5.1
		c0,0,2.7,3.5,4.9,0.2c0,0-1.6-8.4-2.9-14.7l-10.9-65.5c-0.6-3.6,0.4-7.2,2.7-10c0,0,1.9-1.6,0.7-3c0,0-1.1-1.2-3.4,0
		c0,0-4.3,2-9.3,8.1C168,9.9,162.2,16.4,163.6,27"/>
	<path fill="#FFFFFF" d="M34.6,129.3c1,4.1-1.9,4.7-1.9,4.7c-1.2,0.5-2.5,0.4-3.6-0.2c-1.2-0.6-2.4-1.3-3.5-2.1
		c-3.8-2.4-8.1-7.3-10.5-12.5c-7.3-15.4-0.8-29.4,2.4-33c0.6-0.9,1.3-1.7,2.1-2.3c0,0,1.8-1.8,3.1,0.1c0.5,1.2,0.8,2.5,0.7,3.7
		c0,0.8-0.1,1.6-0.2,2.4c-0.2,2.2-1.6,5.4-1.5,7.8c0.3,2.8,1.1,5.5,2.4,8c2.7,5.1,8.4,16.5,9.4,19.5C34,126.7,34.4,127.9,34.6,129.3
		 M87.6,124.6c3-4.9,0.6-7.2-1.3-7.8c-6.7-2.3-9.4,15.2-23,20.7c-15.2,6.1-19.3,2.1-20.6-0.1c-2.8-4.7,5.2-14.7-0.4-27.2
		C35.7,95.7,28.2,86.6,31.8,80s13.9-5.4,18.8-5.4c9.8-0.1,11.3-12.6,10-15.7c-0.7-1.5-2.2-1.7-3.7-1.1c-4.9,2.2-6,3.2-10.3,3.9
		s-7,1-16.7,3c-7.9,1.6-38,23.9-23.8,62.3c11.7,31.6,45.9,30.1,58.3,24.9C77.9,146.2,84.4,129.8,87.6,124.6"/>
	<path fill="#FFFFFF" d="M354.2,89.1c-1.6-1.8-4.2,0.7-4.2,0.7c-10.2,9.3-5.7,19.7-5.7,19.7c0.8,4.7,3.9,3,3.9,3l6.9-1.7l6.7-13.8
		L354.2,89.1z M384.9,85.4l-16.7,34.8c-1.8,4,1.8,4,1.8,4c2.8,0.9,2.8,2.2,2.8,2.2c0.2,2-2,2-2,2l-13.1,3.3
		c-4.5,1.7-4.4-4.4-4.4-4.4c-0.4-2.7-0.6-5.3-0.6-8c0.9-3-2.3-2.7-2.3-2.7l-14,3c-5.3,1.7-7.1-5.3-7.1-5.3
		c-9.2-21.8,21.2-31.2,21.2-31.2c4.7-2.4,6.1,0.4,6.1,0.4l7.8,8.4c2.4-2.6,5.1-11,5.1-11c1.3-2.7-0.3-3.8-0.3-3.8l-13.7-13.8
		c-1.3-1.1-0.1-1.9-0.1-1.9c0.7-1.1,2.6-0.2,2.6-0.2c3.6,1.9,10.3,0.4,10.3,0.4c4.1-0.3,5.4,2.3,5.4,2.3l8,8.4
		C388.1,78.8,384.9,85.4,384.9,85.4"/>
	<path fill="#FFFFFF" d="M218.4,252.5c3.8,0,7.6-3,11.6-9.3c0,0,54.9-85.8,58.4-91c5.1-7.5-4.4-18.3-12.7-9c0,0-42.5,45.8-47.9,52
		c-3.4,3.9-6.1,6-9.4,6s-6-2.1-9.4-6c-5.4-6.1-47.9-52-47.9-52c-8.3-9.3-17.8,1.4-12.7,9c3.5,5.2,58.4,91,58.4,91
		C210.8,249.5,214.6,252.6,218.4,252.5"/>
</g>
</svg>
