<svg
   version="1.1"
   width="130"
   height="auto"
   viewBox="0 0 1047.0133 540.37335"
   xmlns="http://www.w3.org/2000/svg"
   xmlns:svg="http://www.w3.org/2000/svg">
  <defs
     id="defs1" />
  <g
     id="g1">
    <g
       id="group-R5">
      <path
         id="path2"
         d="m 2746.62,4052.83 c 969.31,0 1557.54,-439.44 1647.81,-1108.96 22.99,-169.81 125.63,-236.91 358.06,-236.91 h 1834.83 c 821.61,0 1265.23,-307.59 1265.23,-922.54 0,-690.63 -418.33,-1103.971 -1446.78,-1103.971 H 3265.35 l 670.39,867.021 h 2550.74 c 246.94,0 357.8,70.61 357.8,247.25 0,171.15 -110.86,241.74 -357.8,241.74 H 4651.55 c -756.92,0 -1164.34,294.48 -1245.76,756.8 -51.22,290.97 -230.62,382.53 -512.87,382.53 H 0.046875 L 690.57,4052.83 h 2056.05"
         style="fill:#ed1d24;fill-opacity:1;fill-rule:nonzero;stroke:none"
         transform="matrix(0.13333333,0,0,-0.13333333,0,540.37333)" />
      <path
         id="path3"
         d="m 3661.76,1846.1 c -34.8,18.33 -68.4,37.75 -100.75,58.28 -208.79,132.74 -364.16,311.87 -459.59,526.41 -61.24,-17.05 -130.79,-26.27 -208.5,-26.27 H 0 V 680.449 h 1038.46 v 862.021 h 1703.15 c 440.27,0 802.83,88.31 1075.82,245.66 l -155.67,57.97"
         style="fill:#ed1d24;fill-opacity:1;fill-rule:nonzero;stroke:none"
         transform="matrix(0.13333333,0,0,-0.13333333,0,540.37333)" />
      <path
         id="path4"
         d="m 4756.39,3175.65 h 2334.99 l 670.45,877.18 H 4162.01 c 303.12,-221.13 506.22,-521.16 594.38,-877.18"
         style="fill:#ed1d24;fill-opacity:1;fill-rule:nonzero;stroke:none"
         transform="matrix(0.13333333,0,0,-0.13333333,0,540.37333)" />
      <path
         id="path5"
         d="M 359.309,112.66 H 142.703 V 6.80859 H 15.1719 V 218.512 H 371.621 c 39.652,0 62.492,19.117 62.492,47.668 0,29.031 -22.84,46.961 -62.492,46.961 H 15.1719 L 99.9961,420.898 H 359.855 c 128.129,0 203.04,-63.148 203.04,-155.378 0,-91.571 -74.911,-152.86 -203.586,-152.86"
         style="fill:#ed1d24;fill-opacity:1;fill-rule:nonzero;stroke:none"
         transform="matrix(0.13333333,0,0,-0.13333333,0,540.37333)" />
      <path
         id="path6"
         d="M 1215.06,6.80859 H 1043.67 L 951.441,116.371 H 754.664 V 6.80859 H 626.582 V 218.512 h 360.156 c 39.612,0 70.552,17.929 70.552,46.359 0,32.25 -26.59,48.27 -70.552,48.27 H 626.582 l 83.516,107.757 h 266.125 c 94.027,0 212.857,-29.75 212.857,-147.918 0,-64.378 -40.26,-117.621 -108.31,-131.289 14.22,-10.472 29.75,-25.32 58.14,-54.3707 l 76.15,-80.51171"
         style="fill:#ed1d24;fill-opacity:1;fill-rule:nonzero;stroke:none"
         transform="matrix(0.13333333,0,0,-0.13333333,0,540.37333)" />
      <path
         id="path7"
         d="m 1710.76,214.199 c 0,89.071 -46.47,105.742 -175.14,105.742 -128.69,0 -175.16,-16.671 -175.16,-105.742 0,-89.129 46.47,-106.449 175.16,-106.449 128.67,0 175.14,17.32 175.14,106.449 m 127.43,0 C 1838.19,66.2305 1736.75,0 1535.62,0 c -201.69,0 -302.68,66.2305 -302.68,214.199 0,147.91 100.99,213.512 302.68,213.512 201.13,0 302.57,-65.602 302.57,-213.512"
         style="fill:#ed1d24;fill-opacity:1;fill-rule:nonzero;stroke:none"
         transform="matrix(0.13333333,0,0,-0.13333333,0,540.37333)" />
      <path
         id="path8"
         d="m 2171.15,266.781 c 36.51,-63.703 52.58,-94.75 66.8,-123.781 13.67,29.031 29.75,59.398 66.19,123.18 l 66.25,117.55 c 14.87,26.598 37.1,43.981 70.6,43.981 32.14,0 60.59,-18.59 71.7,-56.992 L 2617.33,6.80859 H 2489.86 L 2450.85,151.121 c -12.97,46.957 -21.68,80.41 -28.44,113.75 -13.67,-29.043 -29.09,-60.582 -57.58,-114.461 L 2309.1,46.4609 C 2287.52,5.66016 2266.44,0 2235.5,0 c -31,0 -51.97,5.66016 -73.65,46.4609 l -55.69,104.6601 c -30.29,56.867 -45.21,85.899 -58.18,113.75 -6.2,-32.793 -15.47,-67.402 -27.83,-113.75 L 1981.09,6.80859 h -125.58 l 107.1,363.91041 c 11.12,38.402 40.21,56.992 72.36,56.992 32.84,0 55.07,-16.793 69.94,-43.981 l 66.24,-116.949"
         style="fill:#ed1d24;fill-opacity:1;fill-rule:nonzero;stroke:none"
         transform="matrix(0.13333333,0,0,-0.13333333,0,540.37333)" />
      <path
         id="path9"
         d="m 3104.92,214.199 c 0,89.071 -46.47,105.742 -175.14,105.742 -128.74,0 -175.16,-16.671 -175.16,-105.742 0,-89.129 46.42,-106.449 175.16,-106.449 128.67,0 175.14,17.32 175.14,106.449 m 127.48,0 C 3232.4,66.2305 3130.96,0 2929.78,0 2728.04,0 2627.2,66.2305 2627.2,214.199 c 0,147.91 100.84,213.512 302.58,213.512 201.18,0 302.62,-65.602 302.62,-213.512"
         style="fill:#ed1d24;fill-opacity:1;fill-rule:nonzero;stroke:none"
         transform="matrix(0.13333333,0,0,-0.13333333,0,540.37333)" />
      <path
         id="path10"
         d="m 3915.21,255.512 c 101.94,0 157.02,-37.614 157.02,-113.024 0,-84.5661 -51.92,-135.18722 -179.5,-135.18722 H 3503.09 L 3586.3,113.559 h 316.45 c 30.63,0 44.41,8.601 44.41,30.242 0,20.988 -13.78,29.59 -44.41,29.59 h -227.68 c -107.55,0 -157.02,47.519 -157.02,118.621 0,77.808 52.57,128.379 179.55,128.379 h 363.42 l -83.27,-107.403 h -290.16 c -30.05,0 -44.36,-7.457 -44.36,-28.449 0,-20.961 14.31,-29.027 44.36,-29.027 h 227.62"
         style="fill:#ed1d24;fill-opacity:1;fill-rule:nonzero;stroke:none"
         transform="matrix(0.13333333,0,0,-0.13333333,0,540.37333)" />
      <path
         id="path11"
         d="m 4599.33,214.199 c 0,88.93 -46.92,105.551 -176.9,105.551 -130.14,0 -177.05,-16.621 -177.05,-105.551 0,-88.91 46.91,-106.238 177.05,-106.238 129.98,0 176.9,17.328 176.9,106.238 m 128.93,0 c 0,-147.6482 -102.65,-213.710719 -305.83,-213.710719 -203.89,0 -305.88,66.062519 -305.88,213.710719 0,147.551 101.99,213 305.88,213 203.18,0 305.83,-65.449 305.83,-213"
         style="fill:#ed1d24;fill-opacity:1;fill-rule:nonzero;stroke:none"
         transform="matrix(0.13333333,0,0,-0.13333333,0,540.37333)" />
      <path
         id="path12"
         d="M 5247.19,113.461 5163.41,7.30078 H 4793.79 V 420.391 h 129.45 v -306.93 h 323.95"
         style="fill:#ed1d24;fill-opacity:1;fill-rule:nonzero;stroke:none"
         transform="matrix(0.13333333,0,0,-0.13333333,0,540.37333)" />
      <path
         id="path13"
         d="m 5833.81,190.961 c 0,-124.7305 -87.02,-187.05084 -260.77,-187.05084 -201.38,0 -288.3,62.32034 -288.3,187.05084 v 232.84 h 128.73 v -232.84 c 0,-61.121 26.34,-80.859 159.57,-80.859 99.49,0 130.69,22.886 130.69,80.859 v 232.84 h 130.08 v -232.84"
         style="fill:#ed1d24;fill-opacity:1;fill-rule:nonzero;stroke:none"
         transform="matrix(0.13333333,0,0,-0.13333333,0,540.37333)" />
      <path
         id="path14"
         d="M 6426.65,420.391 6342.88,312.988 H 6193.37 V 7.30078 H 6063.99 V 312.988 h -196.43 l 83.86,107.403 h 475.23"
         style="fill:#ed1d24;fill-opacity:1;fill-rule:nonzero;stroke:none"
         transform="matrix(0.13333333,0,0,-0.13333333,0,540.37333)" />
      <path
         id="path15"
         d="M 6597.38,7.30078 H 6467.95 V 420.391 h 129.43 V 7.30078"
         style="fill:#ed1d24;fill-opacity:1;fill-rule:nonzero;stroke:none"
         transform="matrix(0.13333333,0,0,-0.13333333,0,540.37333)" />
      <path
         id="path16"
         d="m 7147.72,214.199 c 0,88.93 -46.93,105.551 -177.06,105.551 -130.03,0 -176.9,-16.621 -176.9,-105.551 0,-88.91 46.87,-106.238 176.9,-106.238 130.13,0 177.06,17.328 177.06,106.238 m 128.83,0 C 7276.55,66.5508 7173.9,0.488281 6970.66,0.488281 c -203.83,0 -305.77,66.062519 -305.77,213.710719 0,147.551 101.94,213 305.77,213 203.24,0 305.89,-65.449 305.89,-213"
         style="fill:#ed1d24;fill-opacity:1;fill-rule:nonzero;stroke:none"
         transform="matrix(0.13333333,0,0,-0.13333333,0,540.37333)" />
      <path
         id="path17"
         d="M 7714.31,22.7383 7457.86,250.059 V 7.25 h -117.63 v 342.738 c 0,55.032 33.75,77.211 70.7,77.211 15.67,0 31.29,-3.711 51.87,-22.179 l 256.42,-227.27 v 242.641 h 118.22 V 78.3008 c 0,-54.9727 -33.81,-77.812519 -71.3,-77.812519 -16.23,0 -31.9,3.710939 -51.83,22.250019"
         style="fill:#ed1d24;fill-opacity:1;fill-rule:nonzero;stroke:none"
         transform="matrix(0.13333333,0,0,-0.13333333,0,540.37333)" />
    </g>
  </g>
</svg>
